{"accessors":[{"bufferView":0,"byteOffset":0,"componentType":5126,"count":8,"max":[99.0,99.0,99.0],"min":[0.0,0.0,0.0],"type":"VEC3"},{"bufferView":1,"byteOffset":0,"componentType":5125,"count":24,"type":"SCALAR"},{"bufferView":2,"byteOffset":0,"componentType":5126,"count":39880,"max":[99.0,92.61662292480469,99.0],"min":[0.0,6.383377552032471,0.0],"type":"VEC3"},{"bufferView":3,"byteOffset":0,"componentType":5126,"count":39880,"normalized":false,"type":"VEC2"},{"bufferView":4,"byteOffset":0,"componentType":5125,"count":237492,"type":"SCALAR"}],"asset":{"generator":"VTK","version":"2.0"},"bufferViews":[{"buffer":0,"byteLength":96,"byteOffset":0,"target":34962},{"buffer":1,"byteLength":96,"byteOffset":0,"target":34963},{"buffer":2,"byteLength":478560,"byteOffset":0,"target":34962},{"buffer":3,"byteLength":319040,"byteOffset":0,"target":34962},{"buffer":4,"byteLength":949968,"byteOffset":0,"target":34963},{"buffer":5,"byteLength":311,"byteOffset":0,"target":34962}],"buffers":[{"byteLength":96,"uri":"buffer845989.bin"},{"byteLength":96,"uri":"buffer2419613.bin"},{"byteLength":478560,"uri":"buffer1724713.bin"},{"byteLength":319040,"uri":"buffer2420056.bin"},{"byteLength":949968,"uri":"buffer2420057.bin"},{"byteLength":311,"uri":"buffer2420690.bin"}],"cameras":[{"perspective":{"aspectRatio":1.3772935779816513,"yfov":0.5235987755982988,"zfar":537.918254460177,"znear":167.72394203344422},"type":"perspective"}],"images":[{"bufferView":5,"mimeType":"image/png"}],"materials":[{"pbrMetallicRoughness":{"baseColorFactor":[1.0,1.0,1.0,1.0],"metallicFactor":0.0,"roughnessFactor":1.0}},{"pbrMetallicRoughness":{"baseColorFactor":[1.0,1.0,1.0,1.0],"baseColorTexture":{"index":0,"texCoord":0},"metallicFactor":0.0,"roughnessFactor":1.0}}],"meshes":[{"name":"mesh0","primitives":[{"attributes":{"POSITION":0},"indices":1,"material":0,"mode":1}]},{"name":"mesh1","primitives":[{"attributes":{"POSITION":2,"TEXCOORD_0":3},"indices":4,"material":1,"mode":4}]}],"nodes":[{"mesh":0,"name":"mesh0"},{"mesh":1,"name":"mesh1"},{"camera":0,"matrix":[0.9488770437311512,-0.18449902922010117,-0.25611025769553103,0.0,0.01601633941297475,0.8384821888756827,-0.5446935797400706,0.0,0.3152393261505288,0.5127452848687002,0.798571499674936,0.0,153.9263230180789,219.35223702111372,314.0351593546627,1.0],"name":"Camera Node"},{"children":[0,1,2],"name":"Renderer Node"}],"samplers":[{"magFilter":9728,"minFilter":9728,"wrapS":33071,"wrapT":33071}],"scene":0,"scenes":[{"name":"Layer 0","nodes":[3]}],"textures":[{"sampler":0,"source":0}]}